<svg xmlns="http://www.w3.org/2000/svg" width="512" height="512" viewBox="0 0 512 512" version="1.1">
	<path d="M 246.929 30.367 C 232.915 34.146, 223.207 45.444, 222.225 59.116 C 221.597 67.868, 223.815 74.466, 229.519 80.810 L 233.897 85.679 230.386 87.353 C 227.910 88.534, 226.297 90.336, 224.911 93.468 L 222.946 97.909 216.714 91.677 C 200.342 75.305, 184.447 67.993, 165 67.889 C 148.994 67.804, 138.248 73.686, 132.306 85.786 C 128.550 93.434, 128.391 104.938, 131.939 112.280 C 137.128 123.018, 147.987 131.362, 160.291 134.064 C 164.638 135.019, 166.006 135.731, 165.779 136.918 C 165.613 137.788, 160.862 141.066, 155.222 144.202 C 138.540 153.476, 130.251 159.738, 116.446 173.493 C 96.849 193.019, 85.707 211.356, 76.571 239.120 C 60.877 286.814, 63.946 335.275, 85.459 379.500 C 99.887 409.158, 120.707 432.375, 151.244 452.859 C 184.664 475.276, 231.352 486.448, 272.789 481.945 C 294.743 479.558, 314.771 473.693, 334.330 463.920 C 372.879 444.660, 399.233 418.491, 417.891 380.948 C 444.754 326.893, 443.992 269.731, 415.655 213.310 C 406.110 194.302, 392.398 176.464, 375.202 160.683 C 366.712 152.890, 353.011 142.555, 347.313 139.643 C 344.037 137.969, 342.420 136.247, 343.298 135.369 C 343.572 135.094, 346.551 134.228, 349.917 133.442 C 363.102 130.366, 372.787 122.488, 376.952 111.449 C 382.584 96.525, 375.775 78.480, 361.848 71.423 C 348.786 64.804, 328.252 67.119, 311.291 77.123 C 308.142 78.980, 301.406 84.656, 296.323 89.735 L 287.081 98.971 285.088 94.466 C 283.892 91.762, 281.880 89.270, 280.054 88.231 C 276.267 86.075, 276.248 85.095, 279.927 81.570 C 284.476 77.212, 287.404 69.593, 287.456 61.979 C 287.492 56.571, 286.938 54.316, 284.208 48.771 C 279.453 39.111, 272.159 33.196, 261.500 30.356 C 255.475 28.751, 252.919 28.752, 246.929 30.367 M 244 41.699 C 226.600 50.792, 227.299 73.290, 245.222 81 C 255.205 85.295, 268.433 81.728, 274.491 73.109 C 277.172 69.294, 277.500 68.030, 277.500 61.512 C 277.500 54.912, 277.194 53.771, 274.374 49.848 C 269.743 43.407, 263.161 39.666, 255.644 39.203 C 250.386 38.880, 248.707 39.240, 244 41.699 M 158.903 77.984 C 153.036 79.013, 149.311 80.981, 145.311 85.165 C 141.288 89.373, 140 92.789, 140 99.249 C 140 112.215, 152.296 123.735, 169.536 126.922 C 186.576 130.072, 222 126.056, 222 120.974 C 222 119.450, 221.492 119.328, 218.250 120.074 C 216.188 120.549, 207.975 121.477, 200 122.137 C 187.462 123.174, 184.218 123.118, 176.025 121.728 C 158.353 118.728, 148.098 111.232, 147.223 100.673 C 146.606 93.232, 148.594 89.704, 154.729 87.354 C 164.727 83.524, 181.449 85.998, 200.445 94.119 C 205.365 96.222, 209.518 97.815, 209.674 97.659 C 209.830 97.504, 207.169 95.047, 203.762 92.201 C 190.812 81.380, 172.546 75.591, 158.903 77.984 M 337.387 78.038 C 329.259 79.167, 322.568 81.795, 314.761 86.924 C 301.930 95.354, 302.392 96.117, 317.301 91.123 C 328.196 87.474, 332.158 86.625, 340 86.261 C 348.600 85.862, 349.926 86.049, 354 88.230 C 363.135 93.120, 363.147 103.285, 354.028 112.131 C 347.869 118.105, 340.326 120.969, 328.426 121.851 C 319.371 122.521, 297.805 121.749, 291.250 120.519 C 288.632 120.028, 287.895 120.190, 288.222 121.185 C 289.109 123.888, 303.834 127.227, 317.132 127.741 C 348.504 128.953, 368.052 118.263, 367.978 99.934 C 367.917 84.814, 355.029 75.589, 337.387 78.038 M 237.102 92.377 C 234.879 95.055, 241.122 97.328, 252 97.800 C 261.770 98.224, 268.081 97.170, 271.531 94.539 C 274.811 92.038, 271.630 90.842, 264 91.707 C 255.793 92.638, 253.070 92.631, 244.923 91.661 C 239.609 91.028, 238.107 91.166, 237.102 92.377 M 149 94.154 C 149 96.412, 157.387 103.001, 162.899 105.073 C 173.852 109.191, 191.551 112.155, 213.500 113.548 C 231.159 114.669, 221.816 111.171, 187 103.629 C 175.725 101.186, 162.701 97.796, 158.059 96.094 C 148.315 92.523, 149 92.669, 149 94.154 M 338 99.602 C 316.874 103.378, 286.986 111.320, 288.438 112.771 C 289.299 113.632, 303.189 113.175, 316 111.863 C 335.307 109.887, 352.153 104.319, 355.017 98.969 C 356.373 96.434, 355.554 96.465, 338 99.602 M 275.973 136.432 C 265.460 141.958, 246.929 142.436, 234.591 137.500 C 226.509 134.266, 224.500 134.468, 224.500 138.514 C 224.500 141.060, 225.170 141.833, 229.051 143.760 C 234.433 146.433, 246.964 149, 254.630 149 C 266.307 149, 284.122 143.453, 285.706 139.323 C 286.515 137.215, 284.772 134.556, 282.398 134.277 C 281.354 134.154, 278.463 135.124, 275.973 136.432 M 303.503 156.005 C 303.845 156.558, 306.684 158.757, 309.812 160.892 C 338.994 180.813, 367.491 218.807, 381.521 256.500 C 393.515 288.726, 397.071 325.900, 391.061 356.235 C 387.368 374.874, 377.539 400.345, 368.565 414.532 L 364.791 420.500 369.358 416.078 C 384.714 401.213, 400.279 369.654, 405.649 342.500 C 408.063 330.294, 408.041 307.983, 405.601 294.500 C 401.842 273.727, 392.844 248.886, 382.589 230.972 C 366.399 202.690, 341.127 176.359, 315.548 161.122 C 305.809 155.321, 302.109 153.749, 303.503 156.005 M 196.626 160.464 C 172.598 172.724, 151.125 191.723, 135.218 214.798 C 115.133 243.932, 103.889 284.119, 105.271 321.829 C 105.885 338.582, 107.666 348.832, 112.685 364.500 C 118.942 384.034, 131.873 406.735, 142.591 417 C 145.175 419.475, 147.052 421.050, 146.763 420.500 C 146.474 419.950, 144.370 416.431, 142.087 412.680 C 125.481 385.397, 116.141 343.819, 118.961 309.739 C 124.065 248.071, 152.951 195.503, 200.355 161.615 C 204.675 158.527, 207.572 156, 206.792 156 C 206.012 156, 201.437 158.009, 196.626 160.464 M 247.178 160.286 C 245.239 162.621, 237.341 184.101, 234.229 195.500 C 230.397 209.534, 229.743 212.522, 225.472 235.500 C 220.305 263.304, 218.179 269.643, 216.625 261.875 C 215.428 255.888, 216.004 229.525, 217.541 220 C 219.399 208.482, 225.379 184.889, 228.629 176.254 C 233.439 163.475, 231.115 165.698, 221.431 183.140 C 213.331 197.728, 207.160 212.391, 202.462 228.209 C 198.878 240.275, 197.660 242.994, 196.403 241.736 C 194.533 239.867, 204.283 203.960, 211.212 187.198 C 212.872 183.182, 213.977 179.643, 213.667 179.334 C 212.759 178.426, 200.873 197.277, 192.123 213.500 C 183.408 229.660, 177.278 243.775, 173.847 255.582 C 172.662 259.662, 171.339 263, 170.907 263 C 169.297 263, 168.759 253.351, 169.866 244.341 C 172.046 226.606, 182.815 199.589, 193.459 185.153 C 202.139 173.380, 196.775 176.837, 183.862 191.337 C 152.512 226.543, 136 271.416, 136 321.409 C 136 379.628, 160.763 430.818, 197.966 449.507 L 203.431 452.252 198.152 446.476 C 181.079 427.795, 167.850 390.424, 164.842 352.379 C 163.580 336.416, 164.537 321.553, 167.135 316.793 C 168.540 314.217, 168.472 314.035, 171.023 327.219 C 172.125 332.915, 175.166 338.159, 176.562 336.769 C 176.965 336.367, 177.912 331.192, 178.664 325.269 C 179.417 319.346, 180.922 310.941, 182.009 306.591 C 185.649 292.018, 185.994 293.588, 186.407 326.612 C 186.775 356.015, 187.685 364.939, 192.515 386.472 C 195.476 399.676, 198.480 408.852, 202.867 418.094 C 205.712 424.088, 209.436 428.948, 210.390 427.911 C 210.597 427.685, 209.718 423.450, 208.435 418.500 C 205.984 409.039, 205.387 403, 206.903 403 C 207.400 403, 209.148 404.673, 210.788 406.718 C 213.466 410.056, 213.947 410.289, 215.500 409 C 217.320 407.490, 216.933 407.196, 223.064 414.750 C 223.622 415.438, 224.459 416, 224.924 416 C 225.389 416, 225.950 408.462, 226.171 399.250 C 226.585 382.025, 227.831 375.738, 229.790 381 C 230.302 382.375, 231.031 386.425, 231.411 390 C 232.707 402.203, 236.998 425.768, 239.488 434.360 C 242.315 444.118, 247.637 456, 249.179 456 C 249.748 456, 249.961 455.340, 249.651 454.533 C 249.342 453.727, 248.565 444.389, 247.926 433.783 C 246.225 405.575, 246.094 200.094, 247.762 177.095 C 248.456 167.523, 248.858 159.525, 248.655 159.321 C 248.451 159.118, 247.787 159.552, 247.178 160.286 M 257.032 163.782 C 257.014 166.687, 257.660 177.937, 258.466 188.782 C 261.823 233.951, 262.500 262.253, 262.384 352.500 C 262.314 406.026, 261.868 445.086, 261.281 448.880 C 260.312 455.153, 260.326 455.220, 262.103 452.880 C 264.647 449.529, 270.396 434.077, 272.848 424 C 273.985 419.325, 275.869 408.975, 277.034 401 C 278.199 393.025, 279.476 384.925, 279.871 383 C 281.299 376.042, 282.508 379.712, 283 392.500 C 283.275 399.650, 283.864 406.063, 284.309 406.750 C 284.754 407.438, 286.402 408, 287.971 408 C 290.530 408, 290.895 408.421, 291.513 412.078 C 292.200 416.146, 292.206 416.150, 293.747 413.828 C 300.163 404.161, 301.995 410.798, 297.106 426 C 295.514 430.950, 294.528 435, 294.915 435 C 295.688 435, 303.859 421.283, 305.936 416.500 C 310.774 405.359, 316.095 385.733, 318.712 369.373 C 321.212 353.746, 321.157 309.652, 318.610 287.203 C 317.593 278.240, 317.015 270.651, 317.326 270.340 C 318.408 269.259, 322.046 276.554, 325.008 285.742 C 326.647 290.825, 329.077 300.890, 330.409 308.107 C 333.970 327.409, 336.196 327.978, 336.841 309.750 C 337.236 298.586, 338.225 296.325, 339.902 302.750 C 343.979 318.367, 344.731 346.243, 341.596 365.500 C 336.635 395.974, 325.895 423.907, 312.276 441.757 C 308.740 446.390, 306.073 450.407, 306.349 450.682 C 306.990 451.323, 317.720 445.063, 325.500 439.511 C 346.676 424.397, 363.993 395.116, 371.406 361.889 C 379.159 327.134, 374.969 282.071, 360.485 244.451 C 355.073 230.393, 351.716 223.796, 344.009 212.079 C 334.280 197.288, 316.161 176, 313.300 176 C 312.657 176, 315.921 181.621, 320.552 188.490 C 333.426 207.587, 342.272 227.465, 345.573 244.717 C 348.241 258.665, 346.899 266.927, 343.375 258.250 C 334.387 236.126, 325.765 219.626, 313.457 201 C 304.499 187.442, 292.834 172.999, 292.252 174.744 C 292.053 175.342, 293.431 178.906, 295.315 182.665 C 302.173 196.351, 314.072 230.012, 315.196 238.907 C 315.863 244.185, 313.085 241.754, 310.498 234.798 C 306.694 224.567, 296.860 202.831, 292.265 194.500 C 284.229 179.930, 279.636 172.591, 279.261 173.717 C 279.047 174.358, 280.435 179.072, 282.344 184.191 C 291.922 209.874, 295.331 225.718, 295.431 245 C 295.498 258.123, 294.797 264, 293.165 264 C 292.726 264, 290.667 256.462, 288.588 247.250 C 283.999 226.916, 277.472 204.138, 272.182 190 C 267.741 178.129, 261.027 163.493, 258.651 160.500 C 257.148 158.607, 257.062 158.782, 257.032 163.782" stroke="none" fill="black" fill-rule="evenodd"/>
</svg>